<mxfile host="Electron" modified="2024-06-05T16:02:03.883Z" agent="Mozilla/5.0 (Windows NT 10.0; Win64; x64) AppleWebKit/537.36 (KHTML, like Gecko) draw.io/24.4.8 Chrome/124.0.6367.207 Electron/30.0.6 Safari/537.36" etag="rJC75zQPp09ccaSHl1c3" version="24.4.8" type="device">
  <diagram name="app-helloworld-aws" id="EJ3U0CSz4QtTcOyZrbas">
    <mxGraphModel dx="928" dy="437" grid="1" gridSize="10" guides="1" tooltips="1" connect="1" arrows="1" fold="1" page="1" pageScale="1" pageWidth="850" pageHeight="1100" math="0" shadow="0">
      <root>
        <mxCell id="0" />
        <mxCell id="1" parent="0" />
        <mxCell id="tdD-JaErdSgYc5Sb4T9A-11" value="" style="rounded=0;whiteSpace=wrap;html=1;fillColor=default;strokeColor=none;" vertex="1" parent="1">
          <mxGeometry x="80" width="678.48" height="400" as="geometry" />
        </mxCell>
        <mxCell id="tdD-JaErdSgYc5Sb4T9A-1" value="VPC" style="points=[[0,0],[0.25,0],[0.5,0],[0.75,0],[1,0],[1,0.25],[1,0.5],[1,0.75],[1,1],[0.75,1],[0.5,1],[0.25,1],[0,1],[0,0.75],[0,0.5],[0,0.25]];outlineConnect=0;gradientColor=none;html=1;whiteSpace=wrap;fontSize=12;fontStyle=0;container=0;pointerEvents=0;collapsible=0;recursiveResize=0;shape=mxgraph.aws4.group;grIcon=mxgraph.aws4.group_vpc2;strokeColor=#8C4FFF;fillColor=none;verticalAlign=top;align=left;spacingLeft=30;fontColor=#8c4fff;dashed=0;labelBackgroundColor=none;labelBorderColor=none;textShadow=1;" vertex="1" parent="1">
          <mxGeometry x="160" y="120" width="280" height="200" as="geometry" />
        </mxCell>
        <mxCell id="tdD-JaErdSgYc5Sb4T9A-2" value="Internet &lt;br&gt;Gateway" style="outlineConnect=0;fontColor=#8c4fff;gradientColor=none;fillColor=#8C4FFF;strokeColor=default;dashed=0;verticalLabelPosition=bottom;verticalAlign=top;align=center;html=1;fontSize=12;fontStyle=0;aspect=fixed;pointerEvents=1;shape=mxgraph.aws4.internet_gateway;shadow=1;textShadow=1;" vertex="1" parent="1">
          <mxGeometry x="420" y="160" width="40" height="40" as="geometry" />
        </mxCell>
        <mxCell id="tdD-JaErdSgYc5Sb4T9A-3" value="Public subnet" style="points=[[0,0],[0.25,0],[0.5,0],[0.75,0],[1,0],[1,0.25],[1,0.5],[1,0.75],[1,1],[0.75,1],[0.5,1],[0.25,1],[0,1],[0,0.75],[0,0.5],[0,0.25]];outlineConnect=0;gradientColor=none;html=1;whiteSpace=wrap;fontSize=12;fontStyle=0;container=1;pointerEvents=0;collapsible=0;recursiveResize=0;shape=mxgraph.aws4.group;grIcon=mxgraph.aws4.group_security_group;grStroke=0;strokeColor=#7AA116;fillColor=#F2F6E8;verticalAlign=top;align=left;spacingLeft=30;fontColor=#248814;dashed=0;textShadow=1;" vertex="1" parent="1">
          <mxGeometry x="200" y="160" width="200" height="120" as="geometry" />
        </mxCell>
        <mxCell id="tdD-JaErdSgYc5Sb4T9A-4" value="EC2" style="outlineConnect=0;dashed=0;verticalLabelPosition=bottom;verticalAlign=top;align=center;html=1;shape=mxgraph.aws3.ec2;fillColor=#F58534;gradientColor=none;fontColor=#f58534;textShadow=1;" vertex="1" parent="tdD-JaErdSgYc5Sb4T9A-3">
          <mxGeometry x="80" y="40" width="40" height="40" as="geometry" />
        </mxCell>
        <mxCell id="tdD-JaErdSgYc5Sb4T9A-6" style="edgeStyle=orthogonalEdgeStyle;rounded=0;orthogonalLoop=1;jettySize=auto;html=1;exitX=0.13;exitY=0.77;exitDx=0;exitDy=0;exitPerimeter=0;curved=1;" edge="1" parent="1" source="tdD-JaErdSgYc5Sb4T9A-5" target="tdD-JaErdSgYc5Sb4T9A-2">
          <mxGeometry relative="1" as="geometry" />
        </mxCell>
        <mxCell id="tdD-JaErdSgYc5Sb4T9A-5" value="Internet" style="ellipse;shape=cloud;whiteSpace=wrap;html=1;fillColor=#1ba1e2;strokeColor=#006EAF;fontColor=#ffffff;textShadow=1;" vertex="1" parent="1">
          <mxGeometry x="510" y="80" width="120" height="80" as="geometry" />
        </mxCell>
        <mxCell id="tdD-JaErdSgYc5Sb4T9A-7" style="edgeStyle=orthogonalEdgeStyle;rounded=0;orthogonalLoop=1;jettySize=auto;html=1;exitX=1;exitY=0.5;exitDx=0;exitDy=0;exitPerimeter=0;entryX=0.029;entryY=0.524;entryDx=0;entryDy=0;entryPerimeter=0;curved=1;startArrow=classic;startFill=1;endArrow=none;endFill=0;" edge="1" parent="1" source="tdD-JaErdSgYc5Sb4T9A-4" target="tdD-JaErdSgYc5Sb4T9A-2">
          <mxGeometry relative="1" as="geometry" />
        </mxCell>
        <mxCell id="tdD-JaErdSgYc5Sb4T9A-8" value="AWS Region" style="points=[[0,0],[0.25,0],[0.5,0],[0.75,0],[1,0],[1,0.25],[1,0.5],[1,0.75],[1,1],[0.75,1],[0.5,1],[0.25,1],[0,1],[0,0.75],[0,0.5],[0,0.25]];outlineConnect=0;gradientColor=none;html=1;whiteSpace=wrap;fontSize=12;fontStyle=0;container=1;pointerEvents=0;collapsible=0;recursiveResize=0;shape=mxgraph.aws4.group;grIcon=mxgraph.aws4.group_region;strokeColor=#00A4A6;fillColor=none;verticalAlign=top;align=left;spacingLeft=30;fontColor=#147EBA;dashed=1;" vertex="1" parent="1">
          <mxGeometry x="120" y="80" width="360" height="280" as="geometry" />
        </mxCell>
        <mxCell id="tdD-JaErdSgYc5Sb4T9A-9" value="Users" style="image;aspect=fixed;html=1;points=[];align=center;fontSize=12;image=img/lib/azure2/management_governance/My_Customers.svg;textShadow=1;" vertex="1" parent="1">
          <mxGeometry x="680" y="40" width="36.96" height="30" as="geometry" />
        </mxCell>
        <mxCell id="tdD-JaErdSgYc5Sb4T9A-10" style="edgeStyle=orthogonalEdgeStyle;rounded=0;orthogonalLoop=1;jettySize=auto;html=1;exitX=0.919;exitY=0.381;exitDx=0;exitDy=0;exitPerimeter=0;entryX=0.009;entryY=0.6;entryDx=0;entryDy=0;entryPerimeter=0;curved=1;startArrow=classic;startFill=1;endArrow=none;endFill=0;" edge="1" parent="1" source="tdD-JaErdSgYc5Sb4T9A-5" target="tdD-JaErdSgYc5Sb4T9A-9">
          <mxGeometry relative="1" as="geometry" />
        </mxCell>
      </root>
    </mxGraphModel>
  </diagram>
</mxfile>
